<svg width="16" height="17" viewBox="0 0 16 17" fill="none" xmlns="http://www.w3.org/2000/svg">
<path d="M10.5 14.8334C10.5001 15.2538 10.3413 15.6588 10.0554 15.9671C9.76951 16.2755 9.37762 16.4643 8.95833 16.4959L8.83333 16.5H7.16666C6.74618 16.5002 6.34119 16.3413 6.03287 16.0554C5.72455 15.7695 5.5357 15.3776 5.50416 14.9584L5.5 14.8334H10.5ZM8 0.666687C9.51248 0.666662 10.9658 1.2541 12.0535 2.30508C13.1412 3.35607 13.7781 4.78843 13.83 6.30002L13.8333 6.50002V9.63669L15.3517 12.6734C15.4179 12.8059 15.4511 12.9524 15.4483 13.1006C15.4455 13.2487 15.4069 13.3939 15.3357 13.5238C15.2645 13.6538 15.1629 13.7645 15.0396 13.8465C14.9162 13.9286 14.7748 13.9796 14.6275 13.995L14.5317 14H1.46833C1.32013 14.0001 1.17413 13.9642 1.04285 13.8954C0.911558 13.8267 0.798895 13.7271 0.71451 13.6053C0.630125 13.4835 0.576535 13.343 0.558333 13.1959C0.54013 13.0489 0.557858 12.8996 0.609996 12.7609L0.648329 12.6734L2.16666 9.63669V6.50002C2.16666 4.95292 2.78124 3.46919 3.87521 2.37523C4.96917 1.28127 6.4529 0.666687 8 0.666687Z" fill="#B5BFBE"/>
</svg>
